<?xml version="1.0" encoding="UTF-8" standalone="no"?>
<svg
   class="topography-shape js-shape"
   width="1200px"
   height="580px"
   viewBox="0 0 1200 580"
   version="1.1"
   id="svg28"
   sodipodi:docname="cool-background9.svg"
   inkscape:version="1.1 (c68e22c387, 2021-05-23)"
   xmlns:inkscape="http://www.inkscape.org/namespaces/inkscape"
   xmlns:sodipodi="http://sodipodi.sourceforge.net/DTD/sodipodi-0.dtd"
   xmlns="http://www.w3.org/2000/svg"
   xmlns:svg="http://www.w3.org/2000/svg">
  <defs
     id="defs32" />
  <sodipodi:namedview
     id="namedview30"
     pagecolor="#ffffff"
     bordercolor="#666666"
     borderopacity="1.0"
     inkscape:pageshadow="2"
     inkscape:pageopacity="0.0"
     inkscape:pagecheckerboard="0"
     showgrid="false"
     inkscape:zoom="0.16"
     inkscape:cx="653.125"
     inkscape:cy="996.875"
     inkscape:window-width="2560"
     inkscape:window-height="1377"
     inkscape:window-x="1912"
     inkscape:window-y="-8"
     inkscape:window-maximized="1"
     inkscape:current-layer="svg28" />
  <path
     d="m 754.567,-49.628 c -28.692,61.724 -23.266,100.422 16.275,116.094 59.313,23.508 200.347,32.911 259.299,83.906 58.95,50.994 238.697,11.572 269.438,-75.95 C 1330.32,-13.1 1385.669,-148 1093.808,-148 c -194.576,0 -307.654,32.79 -339.24,98.372 z"
     fill="#fffa72"
     fill-rule="nonzero"
     id="path2"
     style="fill:#efeff3;fill-opacity:1" />
  <path
     d="m 572.8064,69.973169 c 19.44423,172.827201 97.19548,281.181601 233.24533,325.063201 204.07897,65.8224 614.17487,92.1508 861.67807,234.9368 247.4959,142.7832 687.0586,32.4016 631.6471,-212.66 -55.4116,-245.0616 -118.5112,-622.7816 -935.722,-622.7816 -544.81278,0 -808.4235,91.812 -790.8457,275.441599 z"
     fill="#FFFA72"
     fill-rule="nonzero"
     style="fill:#efeff3;fill-opacity:1;stroke-width:2.8"
     id="path4" />
  <path
     d="m -1078.4974,472.54477 c 19.4442,172.82719 97.19551,281.18159 233.24531,325.06319 204.07903,65.8224 614.17493,92.1508 861.678132,234.93684 247.495848,142.7832 687.058548,32.4016 631.647148,-212.66004 -55.4116,-245.0616 -118.5112,-622.7816 -935.72205,-622.7816 -544.81283,0 -808.42354,91.81201 -790.84574,275.44161 z"
     fill="#FFFA72"
     fill-rule="nonzero"
     style="fill:#efeff3;fill-opacity:1;stroke-width:2.8"
     id="path4-2" />
  <ellipse
     style="fill:#efeff3;fill-opacity:1;stroke-width:1.00157"
     id="path1959"
     ry="111.15312"
     rx="106.61626"
     cy="106.61626"
     cx="279.017" />
</svg>
