<?xml version="1.0" encoding="UTF-8" standalone="no"?>
<svg
   class="topography-shape js-shape"
   width="1200px"
   height="580px"
   viewBox="0 0 1200 580"
   version="1.1"
   id="svg28"
   sodipodi:docname="cool-background8.svg"
   inkscape:version="1.1 (c68e22c387, 2021-05-23)"
   xmlns:inkscape="http://www.inkscape.org/namespaces/inkscape"
   xmlns:sodipodi="http://sodipodi.sourceforge.net/DTD/sodipodi-0.dtd"
   xmlns="http://www.w3.org/2000/svg"
   xmlns:svg="http://www.w3.org/2000/svg">
  <defs
     id="defs32" />
  <sodipodi:namedview
     id="namedview30"
     pagecolor="#ffffff"
     bordercolor="#666666"
     borderopacity="1.0"
     inkscape:pageshadow="2"
     inkscape:pageopacity="0.0"
     inkscape:pagecheckerboard="0"
     showgrid="false"
     inkscape:zoom="0.88166667"
     inkscape:cx="555.19849"
     inkscape:cy="514.36673"
     inkscape:window-width="2560"
     inkscape:window-height="1377"
     inkscape:window-x="1912"
     inkscape:window-y="-8"
     inkscape:window-maximized="1"
     inkscape:current-layer="svg28" />
  <path
     d="m 754.567,-49.628 c -28.692,61.724 -23.266,100.422 16.275,116.094 59.313,23.508 200.347,32.911 259.299,83.906 58.95,50.994 238.697,11.572 269.438,-75.95 C 1330.32,-13.1 1385.669,-148 1093.808,-148 c -194.576,0 -307.654,32.79 -339.24,98.372 z"
     fill="#fffa72"
     fill-rule="nonzero"
     id="path2" />
  <path
     d="m 332.35271,72.2416 c 19.44423,172.8272 97.19548,281.1816 233.24533,325.0632 204.07898,65.8224 614.17486,92.1508 861.67806,234.9368 247.4959,142.7832 687.0586,32.4016 631.6471,-212.66 C 2003.5116,174.52 1940.412,-203.2 1123.2012,-203.2 c -544.81277,0 -808.42349,91.812 -790.84569,275.4416 z"
     fill="#FFFA72"
     fill-rule="nonzero"
     style="fill:#182848;fill-opacity:1;stroke-width:2.8"
     id="path4" />
  <path
     d="m 364.01882,62.0858 c 9.11462,163.5686 76.87751,266.1183 203.28073,307.6491 189.6088,62.2962 576.32035,87.21415 802.89095,222.3509 226.5638,135.1341 648.5106,30.6658 609.2374,-201.2675 C 1940.1547,158.885 1900.7347,-198.6 1127.303,-198.6 c -515.62637,0 -770.04918,86.8935 -763.28153,260.6858 z"
     fill="#FFFA72"
     fill-rule="nonzero"
     style="fill:#1c2e51;fill-opacity:1;stroke-width:2.65"
     id="path6" />
  <path
     d="m 396.48732,51.93 c 0.22593,154.31 58.90387,251.055 176.0263,290.235 175.6874,58.77 539.23408,82.2775 746.06248,209.765 206.8223,127.485 610.2328,28.93 585.0549,-189.875 C 1878.453,143.25 1859.5633,-194 1129.9108,-194 643.47077,-194 399.00134,-112.025 396.48982,51.93 Z"
     fill="#FFFA72"
     fill-rule="nonzero"
     style="fill:#20345b;fill-opacity:1;stroke-width:2.5"
     id="path8" />
  <path
     d="m 429.69022,41.7742 c -7.34394,145.0514 43.07586,235.9917 151.25237,272.8209 162.26828,55.2438 502.85111,77.34085 691.02691,197.1791 188.1701,119.8359 572.2021,27.1942 559.2494,-178.4825 C 1818.2662,127.615 1817.0244,-189.4 1131.1511,-189.4 c -457.25362,0 -691.06907,77.0565 -701.45853,231.1742 z"
     fill="#FFFA72"
     fill-rule="nonzero"
     style="fill:#253964;fill-opacity:1;stroke-width:2.35"
     id="path10" />
  <path
     d="m 463.57025,31.6184 c -13.69787,135.7928 29.22616,220.9284 128.76547,255.4068 149.31227,51.7176 467.11638,72.4042 637.64418,184.5932 170.5227,112.1868 534.3995,25.4584 531.9479,-167.09 -2.4517,-192.5484 11.297,-489.3284 -630.7972,-489.3284 -428.06721,0 -650.58272,72.138 -667.55815,216.4184 z"
     fill="#FFFA72"
     fill-rule="nonzero"
     style="fill:#29406e;fill-opacity:1;stroke-width:2.2"
     id="path12" />
  <path
     d="m 498.07912,21.4626 c -18.92252,126.5342 17.21372,205.8651 108.40256,237.9927 136.78634,48.1914 431.98382,67.46755 585.79662,172.0073 153.8081,104.5377 496.8086,23.7226 503.2567,-155.6975 6.4481,-179.4201 32.7192,-455.9651 -565.5958,-455.9651 -398.8808,0 -609.49647,67.2195 -631.85803,201.6626 z"
     fill="#FFFA72"
     fill-rule="nonzero"
     style="fill:#2e4678;fill-opacity:1;stroke-width:2.05"
     id="path14" />
  <path
     d="m 533.1762,11.3068 c -23.09089,117.2756 6.91979,190.8018 90.02636,220.5786 124.66271,44.6652 397.41444,62.5309 535.38494,159.4214 137.9662,96.8886 459.4156,21.9868 473.2658,-144.305 C 1645.7034,80.71 1682.1885,-175.6 1127.6526,-175.6 c -369.69442,0 -567.84912,62.301 -594.4745,186.9068 z"
     fill="#FFFA72"
     fill-rule="nonzero"
     style="fill:#324c82;fill-opacity:1;stroke-width:1.9"
     id="path16" />
  <path
     d="m 568.82741,1.151 c -26.26421,108.017 -1.75522,175.7385 73.52173,203.1645 112.91805,41.139 363.37556,57.59425 486.32586,146.8355 122.9465,89.2395 422.2093,20.251 442.0505,-132.9125 C 1590.5668,65.075 1635.0909,-171 1124.3342,-171 783.8262,-171 598.66109,-113.6175 568.82916,1.151 Z"
     fill="#FFFA72"
     fill-rule="nonzero"
     style="fill:#37528d;fill-opacity:1;stroke-width:1.75"
     id="path18" />
  <path
     d="m 605.00434,-9.0048 c -28.49343,98.7584 -8.89423,160.6752 58.7928,185.7504 101.53296,37.6128 329.84016,52.6576 438.55026,134.2496 108.7066,81.5904 385.1799,18.5152 409.6735,-121.52 C 1536.5145,49.44 1587.0145,-166.4 1120.0369,-166.4 c -311.32158,0 -482.99556,52.464 -515.03096,157.3952 z"
     fill="#FFFA72"
     fill-rule="nonzero"
     style="fill:#3c5897;fill-opacity:1;stroke-width:1.6"
     id="path20" />
  <path
     d="m 641.68363,-19.1606 c -29.82053,89.4998 -14.56553,145.6119 45.76065,168.3363 90.49143,34.0866 296.78573,47.72095 392.00092,121.6637 95.212,73.9413 348.3197,16.7794 376.1865,-110.1275 27.8668,-126.9069 82.371,-322.5119 -340.8275,-322.5119 -282.13515,0 -439.83877,47.5455 -473.11912,142.6394 z"
     fill="#FFFA72"
     fill-rule="nonzero"
     style="fill:#415fa2;fill-opacity:1;stroke-width:1.45"
     id="path22" />
  <path
     d="m 678.84641,-29.3164 c -30.27941,80.2412 -18.82428,130.5486 34.36148,150.9222 79.78059,30.5604 264.19424,42.7843 346.63181,109.0778 82.4348,66.2922 311.6222,15.0436 341.6312,-98.735 C 1431.4798,18.17 1488.0906,-157.2 1108.6713,-157.2 c -252.94876,0 -396.22078,42.627 -429.82359,127.8836 z"
     fill="#FFFA72"
     fill-rule="nonzero"
     style="fill:#4665ac;fill-opacity:1;stroke-width:1.3"
     id="path24" />
  <path
     d="m 716.47787,-39.4722 c -29.89663,70.9826 -21.7137,115.4853 24.54534,133.5081 69.39029,27.0342 232.05151,37.84765 302.40679,96.4919 70.3529,58.6431 275.0826,13.3078 306.0402,-87.3425 C 1380.4279,2.535 1437.3059,-152.6 1101.6658,-152.6 c -223.76245,0 -352.15576,37.7085 -385.18678,113.1278 z"
     fill="#FFFA72"
     fill-rule="nonzero"
     style="fill:#4b6cb7;fill-opacity:1;stroke-width:1.15"
     id="path26" />
</svg>
