<?xml version="1.0" encoding="UTF-8" standalone="no"?>
<svg
   class="topography-shape js-shape"
   width="1200px"
   height="580px"
   viewBox="0 0 1200 580"
   version="1.1"
   id="svg28"
   sodipodi:docname="cool-background11.svg"
   inkscape:version="1.1 (c68e22c387, 2021-05-23)"
   xmlns:inkscape="http://www.inkscape.org/namespaces/inkscape"
   xmlns:sodipodi="http://sodipodi.sourceforge.net/DTD/sodipodi-0.dtd"
   xmlns="http://www.w3.org/2000/svg"
   xmlns:svg="http://www.w3.org/2000/svg">
  <defs
     id="defs32" />
  <sodipodi:namedview
     id="namedview30"
     pagecolor="#ffffff"
     bordercolor="#666666"
     borderopacity="1.0"
     inkscape:pageshadow="2"
     inkscape:pageopacity="0.0"
     inkscape:pagecheckerboard="0"
     showgrid="false"
     inkscape:zoom="0.64"
     inkscape:cx="892.96875"
     inkscape:cy="382.03125"
     inkscape:window-width="2560"
     inkscape:window-height="1377"
     inkscape:window-x="1912"
     inkscape:window-y="-8"
     inkscape:window-maximized="1"
     inkscape:current-layer="svg28"
     inkscape:object-paths="false" />
  <rect
     style="fill:#fe6f42;fill-opacity:1;stroke-width:0.959971"
     id="rect8008"
     width="1390.3125"
     height="814.375"
     x="20.3125"
     y="-167.1875" />
  <rect
     style="fill:#1d3d59;fill-opacity:1;stroke-width:0.65802"
     id="rect8012"
     width="637.5"
     height="809.97662"
     x="741.5625"
     y="-164.35161" />
  <path
     sodipodi:type="spiral"
     style="fill:none;fill-rule:evenodd;stroke:#1d3d59;stroke-opacity:1"
     id="path10110"
     sodipodi:cx="140.625"
     sodipodi:cy="-28.125"
     sodipodi:expansion="1"
     sodipodi:revolution="3"
     sodipodi:radius="208.37564"
     sodipodi:argument="-19.3501"
     sodipodi:t0="0"
     d="m 140.625,-28.125 c 9.16593,-5.013841 11.2807,9.881835 8.33333,15.234374 -7.98719,14.5050513 -28.58852,11.1803709 -38.80208,1.432293 -18.269659,-17.437024 -12.32664,-47.085023 5.46875,-62.36979 26.11545,-22.431011 65.86089,-13.58561 85.9375,12.369789 26.75896,34.594463 14.89732,84.739656 -19.27083,109.505205 C 139.29454,79.211788 78.623292,64.284146 49.218754,21.875002 13.605919,-29.488154 31.624996,-100.75041 82.291665,-134.76562 142.00058,-174.85137 223.8918,-153.72627 262.49999,-94.791669 307.07469,-26.749341 282.83447,65.794988 215.625,108.98437 139.25733,158.05889 36.043542,130.69753 -11.718743,55.208336 -65.300808,-29.479129 -34.814094,-143.37396 48.95833,-195.70312 141.9616,-253.7984 266.546,-220.18328 323.43749,-128.125" />
  <path
     sodipodi:type="spiral"
     style="fill:none;fill-rule:evenodd;stroke:#fe6f42;stroke-opacity:1"
     id="path10110-1"
     sodipodi:cx="140.625"
     sodipodi:cy="-28.125"
     sodipodi:expansion="1"
     sodipodi:revolution="3"
     sodipodi:radius="208.37564"
     sodipodi:argument="-19.3501"
     sodipodi:t0="0"
     d="m 140.625,-28.125 c 9.16593,-5.013841 11.2807,9.881835 8.33333,15.234374 -7.98719,14.5050513 -28.58852,11.1803709 -38.80208,1.432293 -18.269659,-17.437024 -12.32664,-47.085023 5.46875,-62.36979 26.11545,-22.431011 65.86089,-13.58561 85.9375,12.369789 26.75896,34.594463 14.89732,84.739656 -19.27083,109.505205 C 139.29454,79.211788 78.623292,64.284146 49.218754,21.875002 13.605919,-29.488154 31.624996,-100.75041 82.291665,-134.76562 142.00058,-174.85137 223.8918,-153.72627 262.49999,-94.791669 307.07469,-26.749341 282.83447,65.794988 215.625,108.98437 139.25733,158.05889 36.043542,130.69753 -11.718743,55.208336 -65.300808,-29.479129 -34.814094,-143.37396 48.95833,-195.70312 141.9616,-253.7984 266.546,-220.18328 323.43749,-128.125"
     transform="translate(805.9704,623.53383)" />
</svg>
