<?xml version="1.0" encoding="UTF-8" standalone="no"?>
<svg
   class="topography-shape js-shape"
   width="1200px"
   height="580px"
   viewBox="0 0 1200 580"
   version="1.1"
   id="svg28"
   sodipodi:docname="testName.svg"
   inkscape:version="1.1 (c68e22c387, 2021-05-23)"
   xmlns:inkscape="http://www.inkscape.org/namespaces/inkscape"
   xmlns:sodipodi="http://sodipodi.sourceforge.net/DTD/sodipodi-0.dtd"
   xmlns="http://www.w3.org/2000/svg"
   xmlns:svg="http://www.w3.org/2000/svg">
  <defs
     id="defs32">
    <clipPath
       clipPathUnits="userSpaceOnUse"
       id="clipPath18722">
      <g
         inkscape:label="Clip"
         id="use18724">
        <g
           id="g18898"
           clip-path="none"
           transform="matrix(1,0,0,0.98234843,-132.8125,417.36138)">
          <g
             inkscape:label="Clip"
             id="g18896">
            <rect
               style="fill:#59be9c;fill-opacity:1;stroke-width:0.691574"
               id="rect18894"
               width="721.5625"
               height="814.375"
               x="20.3125"
               y="-167.1875" />
          </g>
        </g>
      </g>
    </clipPath>
    <clipPath
       clipPathUnits="userSpaceOnUse"
       id="clipPath20199">
      <rect
         style="fill:#503750;fill-opacity:1;stroke-width:1.04708"
         id="rect20201"
         width="1020.7325"
         height="1280.9192"
         x="200.47635"
         y="-1274.6165" />
    </clipPath>
    <clipPath
       clipPathUnits="userSpaceOnUse"
       id="clipPath24801">
      <rect
         style="fill:#ffe43c;fill-opacity:1;stroke-width:0.653955"
         id="rect24803"
         width="637.5"
         height="800"
         x="741.5625"
         y="-164.35161" />
    </clipPath>
    <clipPath
       clipPathUnits="userSpaceOnUse"
       id="clipPath28098">
      <rect
         style="fill:#ffe43c;fill-opacity:1;stroke-width:0.653955"
         id="rect28100"
         width="637.5"
         height="800"
         x="741.5625"
         y="-164.35158"
         transform="rotate(-67.152525)" />
    </clipPath>
    <clipPath
       clipPathUnits="userSpaceOnUse"
       id="clipPath29426">
      <rect
         style="fill:#ffe43c;fill-opacity:1;stroke-width:0.653955"
         id="rect29428"
         width="637.5"
         height="800"
         x="741.5625"
         y="-164.35158"
         transform="rotate(-40.963321)" />
    </clipPath>
    <clipPath
       clipPathUnits="userSpaceOnUse"
       id="clipPath34401">
      <rect
         style="fill:#ffe43c;fill-opacity:1;stroke-width:0.653955"
         id="rect34403"
         width="637.5"
         height="800"
         x="741.5625"
         y="-164.35158"
         transform="rotate(-98.714177)" />
    </clipPath>
    <clipPath
       clipPathUnits="userSpaceOnUse"
       id="clipPath36040">
      <rect
         style="fill:#ffe43c;fill-opacity:1;stroke-width:0.653955"
         id="rect36042"
         width="637.5"
         height="800"
         x="741.5625"
         y="-164.35158"
         transform="rotate(-111.71254)" />
    </clipPath>
  </defs>
  <sodipodi:namedview
     id="namedview30"
     pagecolor="#ffffff"
     bordercolor="#666666"
     borderopacity="1.0"
     inkscape:pageshadow="2"
     inkscape:pageopacity="0.0"
     inkscape:pagecheckerboard="0"
     showgrid="false"
     inkscape:zoom="0.90509668"
     inkscape:cx="776.16018"
     inkscape:cy="170.7"
     inkscape:window-width="2560"
     inkscape:window-height="1377"
     inkscape:window-x="1912"
     inkscape:window-y="-8"
     inkscape:window-maximized="1"
     inkscape:current-layer="layer1"
     inkscape:object-paths="false" />
  <g
     inkscape:groupmode="layer"
     id="layer2"
     inkscape:label="Green Side">
    <g
       id="g19030"
       clip-path="none"
       transform="matrix(1,0,0,0.98234843,0,-2.9511224)">
      <g
         inkscape:label="Clip"
         id="g19028">
        <rect
           style="fill:#59be9c;fill-opacity:1;stroke-width:0.691574"
           id="rect19026"
           width="721.5625"
           height="814.375"
           x="20.3125"
           y="-167.1875" />
      </g>
    </g>
    <path
       sodipodi:type="spiral"
       style="display:none;fill:none;fill-rule:evenodd;stroke:#59be9c;stroke-opacity:1"
       id="path10110-1"
       sodipodi:cx="140.625"
       sodipodi:cy="-28.125"
       sodipodi:expansion="1"
       sodipodi:revolution="6.452086"
       sodipodi:radius="448.15247"
       sodipodi:argument="-19.3501"
       sodipodi:t0="0"
       d="m 140.625,-28.125 c 9.16593,-5.013841 11.2807,9.881834 8.33333,15.234373 -7.98719,14.505049 -28.58852,11.1803689 -38.80208,1.432292 -18.269653,-17.437022 -12.326635,-47.085017 5.46875,-62.369783 26.11545,-22.431008 65.86089,-13.585608 85.93749,12.369787 26.75896,34.59446 14.89732,84.739647 -19.27083,109.505194 C 139.29454,79.211776 78.623299,64.284135 49.218765,21.874996 13.605933,-29.488154 31.625009,-100.7504 82.291671,-134.76561 142.00058,-174.85135 223.89179,-153.72625 262.49998,-94.791661 307.07467,-26.749341 282.83446,65.794977 215.62499,108.98435 139.25733,158.05887 36.043554,130.69751 -11.718726,55.208327 -65.300785,-29.479129 -34.814074,-143.37395 48.958341,-195.7031 141.9616,-253.79837 266.54599,-220.18326 323.43747,-128.12499 386.05024,-26.808887 349.30446,108.47152 248.95832,169.92184 139.33163,237.05543 -6.6498105,197.17723 -72.656216,88.541657 -144.31323,-29.393878 -101.30126,-186.0803 15.62501,-256.64059 c 126.24298,-76.18255 293.63758,-30.03571 368.74995,95.18227 80.7098,134.549288 31.42721,312.65467 -102.0833,392.31765 -142.85469,85.23846 -331.673006,32.8194 -415.88537,-108.98434 -89.7683,-151.159308 -34.21217,-350.69237 115.88539,-439.45307 159.46329,-94.29915 369.71263,-35.60544 463.02077,122.78643 C 544.1433,-27.024925 482.31158,193.94199 315.62499,291.79682 139.55528,395.1601 -92.130324,330.19 -194.5312,155.20832 -302.42753,-29.163958 -234.31874,-271.56923 -51.041651,-378.51557 141.63285,-490.94551 394.75864,-419.69776 506.24994,-228.12498 623.21397,-27.148555 548.82701,236.69849 348.95832,352.73431 183.4254,448.83615 -30.749747,423.17584 -171.09223,293.85792"
       transform="matrix(0.62455147,0,0,0.62455147,686.6672,630.1495)" />
    <g
       inkscape:label="Clip"
       id="g17477"
       transform="matrix(1,0,0,0.98234843,0,-2.9511224)">
      <rect
         style="fill:#59be9c;fill-opacity:1;stroke-width:0.691574"
         id="rect8008"
         width="721.5625"
         height="814.375"
         x="20.3125"
         y="-167.1875" />
    </g>
    <g
       id="g20188"
       clip-path="none"
       transform="matrix(1,0,0,0.98234845,0,-2.9511191)"
       style="fill:#ffe43c;fill-opacity:1">
      <g
         inkscape:label="Clip"
         id="g20186"
         style="fill:#ffe43c;fill-opacity:1">
        <rect
           style="fill:#ffe43c;fill-opacity:1;stroke-width:0.691574"
           id="rect20184"
           width="721.5625"
           height="814.375"
           x="20.3125"
           y="-167.1875" />
      </g>
    </g>
  </g>
  <g
     inkscape:groupmode="layer"
     id="layer1"
     inkscape:label="Purple Side"
     style="display:inline">
    <rect
       style="fill:#17181e;fill-opacity:1;stroke-width:0.653955"
       id="rect8012"
       width="637.5"
       height="800"
       x="741.5625"
       y="-164.35158" />
  </g>
</svg>
