<?xml version="1.0" encoding="UTF-8" standalone="no"?>
<svg
   width="451.45599"
   height="512"
   viewBox="0 0 451.45599 512"
   version="1.1"
   id="svg10"
   sodipodi:docname="css.svg"
   inkscape:version="1.1.2 (b8e25be833, 2022-02-05)"
   xmlns:inkscape="http://www.inkscape.org/namespaces/inkscape"
   xmlns:sodipodi="http://sodipodi.sourceforge.net/DTD/sodipodi-0.dtd"
   xmlns="http://www.w3.org/2000/svg"
   xmlns:svg="http://www.w3.org/2000/svg">
  <defs
     id="defs14" />
  <sodipodi:namedview
     id="namedview12"
     pagecolor="#ffffff"
     bordercolor="#666666"
     borderopacity="1.0"
     inkscape:pageshadow="2"
     inkscape:pageopacity="0.0"
     inkscape:pagecheckerboard="0"
     showgrid="false"
     inkscape:zoom="1.7050781"
     inkscape:cx="225.50286"
     inkscape:cy="255.70676"
     inkscape:window-width="2560"
     inkscape:window-height="1369"
     inkscape:window-x="-8"
     inkscape:window-y="-8"
     inkscape:window-maximized="1"
     inkscape:current-layer="svg10" />
  <path
     fill="#264de4"
     d="M 41.085,460.819 0,0 H 451.456 L 410.327,460.746 225.452,512 Z"
     id="path2" />
  <path
     fill="#2965f1"
     d="M 375.116,431.408 410.264,37.678 H 225.728 v 435.146 z"
     id="path4" />
  <path
     fill="#ebebeb"
     d="m 94.188,208.59 5.065,56.517 H 225.728 V 208.59 Z M 89.147,150.715 H 225.728 V 94.197 H 84.009 Z m 136.581,204.657 -0.248,0.066 -62.944,-16.996 -4.023,-45.076 h -56.736 l 7.919,88.741 115.772,32.14 0.26,-0.073 z"
     id="path6" />
  <path
     fill="#ffffff"
     d="m 225.533,208.59 v 56.517 h 69.595 l -6.56,73.299 -63.035,17.013 v 58.8 l 115.864,-32.112 0.85,-9.549 13.28,-148.792 1.38,-15.176 L 367.11,94.197 H 225.533 v 56.518 h 79.639 l -5.144,57.875 z"
     id="path8" />
</svg>
