<?xml version="1.0" encoding="UTF-8" standalone="no"?>
<!-- Created with Inkscape (http://www.inkscape.org/) -->

<svg
   id="svg2"
   height="700.02002"
   viewBox="0 0 852.59009 700.02002"
   width="852.59009"
   version="1.1"
   sodipodi:docname="cssmodules.svg"
   inkscape:version="1.1.2 (b8e25be833, 2022-02-05)"
   xmlns:inkscape="http://www.inkscape.org/namespaces/inkscape"
   xmlns:sodipodi="http://sodipodi.sourceforge.net/DTD/sodipodi-0.dtd"
   xmlns="http://www.w3.org/2000/svg"
   xmlns:svg="http://www.w3.org/2000/svg"
   xmlns:rdf="http://www.w3.org/1999/02/22-rdf-syntax-ns#"
   xmlns:cc="http://creativecommons.org/ns#"
   xmlns:dc="http://purl.org/dc/elements/1.1/">
  <defs
     id="defs19" />
  <sodipodi:namedview
     id="namedview17"
     pagecolor="#ffffff"
     bordercolor="#666666"
     borderopacity="1.0"
     inkscape:pageshadow="2"
     inkscape:pageopacity="0.0"
     inkscape:pagecheckerboard="0"
     showgrid="false"
     inkscape:zoom="0.873"
     inkscape:cx="127.7205"
     inkscape:cy="200.45819"
     inkscape:window-width="2560"
     inkscape:window-height="1369"
     inkscape:window-x="-8"
     inkscape:window-y="-8"
     inkscape:window-maximized="1"
     inkscape:current-layer="svg2" />
  <metadata
     id="metadata7">
    <rdf:RDF>
      <cc:Work
         rdf:about="">
        <dc:format>image/svg+xml</dc:format>
        <dc:type
           rdf:resource="http://purl.org/dc/dcmitype/StillImage" />
        <dc:title />
      </cc:Work>
    </rdf:RDF>
  </metadata>
  <g
     id="flowRoot3336"
     transform="matrix(1.8595,0,0,1.8595,-100.166,121.51999)"
     style="fill:#ffffff">
    <path
       id="path4379"
       d="m 105.49,108.89 q 12.261,0 19.028,6.46 6.7676,6.46 7.5146,14.678 h -8.5254 q -1.4502,-6.2402 -5.8008,-9.8877 -4.3066,-3.6475 -12.129,-3.6475 -9.5361,0 -15.425,6.7236 -5.8447,6.6797 -5.8447,20.522 0,11.338 5.2734,18.413 5.3174,7.0312 15.82,7.0312 9.668,0 14.722,-7.4268 2.6807,-3.9111 3.999,-10.283 h 8.5254 q -1.1426,10.195 -7.5586,17.095 -7.6904,8.3057 -20.742,8.3057 -11.25,0 -18.896,-6.8115 -10.063,-9.0088 -10.063,-27.817 0,-14.282 7.5586,-23.423 8.1738,-9.9316 22.544,-9.9316 z m -1.7578,0 z"
       style="fill:#ffffff" />
    <path
       id="path4381"
       d="m 149.04,154.37 q 0.30761,5.4932 2.5928,8.9209 4.3506,6.416 15.337,6.416 4.9219,0 8.9648,-1.4062 7.8223,-2.7246 7.8223,-9.7559 0,-5.2734 -3.2959,-7.5146 -3.3398,-2.1973 -10.459,-3.8232 l -8.7451,-1.9775 q -8.5693,-1.9336 -12.129,-4.2627 -6.1524,-4.043 -6.1524,-12.085 0,-8.7012 6.0205,-14.282 6.0205,-5.5811 17.051,-5.5811 10.151,0 17.227,4.9219 7.1192,4.8779 7.1192,15.645 h -8.2178 q -0.65918,-5.1856 -2.8125,-7.9541 -3.999,-5.0537 -13.579,-5.0537 -7.7344,0 -11.118,3.252 -3.3838,3.252 -3.3838,7.5586 0,4.7461 3.9551,6.9434 2.5928,1.4062 11.733,3.5156 l 9.0527,2.0654 q 6.5478,1.4941 10.107,4.0869 6.1523,4.5264 6.1523,13.14 0,10.723 -7.8223,15.337 -7.7783,4.6143 -18.105,4.6143 -12.041,0 -18.853,-6.1523 -6.8115,-6.1084 -6.6797,-16.567 h 8.2178 z m 17.666,-45.483 z"
       style="fill:#ffffff" />
    <path
       id="path4383"
       d="m 208.98,154.37 q 0.30762,5.4932 2.5928,8.9209 4.3506,6.416 15.337,6.416 4.9219,0 8.9648,-1.4062 7.8223,-2.7246 7.8223,-9.7559 0,-5.2734 -3.2959,-7.5146 -3.3398,-2.1973 -10.459,-3.8232 l -8.7451,-1.9775 q -8.5693,-1.9336 -12.129,-4.2627 -6.1523,-4.043 -6.1523,-12.085 0,-8.7012 6.0205,-14.282 6.0205,-5.5811 17.051,-5.5811 10.151,0 17.227,4.9219 7.1191,4.8779 7.1191,15.645 h -8.2178 q -0.65918,-5.1856 -2.8125,-7.9541 -3.999,-5.0537 -13.579,-5.0537 -7.7344,0 -11.118,3.252 -3.3838,3.252 -3.3838,7.5586 0,4.7461 3.9551,6.9434 2.5928,1.4062 11.733,3.5156 l 9.0527,2.0654 q 6.5479,1.4941 10.107,4.0869 6.1523,4.5264 6.1523,13.14 0,10.723 -7.8223,15.337 -7.7783,4.6143 -18.105,4.6143 -12.041,0 -18.853,-6.1523 -6.8115,-6.1084 -6.6797,-16.567 h 8.2178 z m 17.666,-45.483 z"
       style="fill:#ffffff" />
    <path
       id="path4385"
       d="m 78.063,223.14 h 12.524 l 18.545,54.58 18.413,-54.58 h 12.393 v 64.556 h -8.3057 v -38.101 q 0,-1.9775 0.0879,-6.5478 0.0879,-4.5703 0.0879,-9.7998 l -18.413,54.448 h -8.6572 l -18.545,-54.448 v 1.9775 q 0,2.373 0.08789,7.251 0.13184,4.834 0.13184,7.1191 v 38.101 h -8.3496 V 223.14 Z"
       style="fill:#ffffff" />
    <path
       id="path4387"
       d="m 181.2,221.39 q 17.095,0 25.312,10.986 6.416,8.5693 6.416,21.929 0,14.458 -7.3389,24.038 -8.6133,11.25 -24.565,11.25 -14.897,0 -23.423,-9.8438 -7.6025,-9.4922 -7.6025,-23.994 0,-13.096 6.5039,-22.412 8.3496,-11.953 24.697,-11.953 z m 0.87891,60.381 q 11.558,0 16.699,-8.2617 5.1856,-8.3057 5.1856,-19.072 0,-11.382 -5.9766,-18.325 -5.9326,-6.9434 -16.26,-6.9434 -10.02,0 -16.348,6.8994 -6.3281,6.8555 -6.3281,20.259 0,10.723 5.4053,18.105 5.4492,7.3389 17.622,7.3389 z m -0.61523,-60.381 z"
       style="fill:#ffffff" />
    <path
       id="path4389"
       d="m 248.09,280.23 q 4.4385,0 7.2949,-0.92285 5.0977,-1.7139 8.3496,-6.5918 2.5928,-3.9111 3.7354,-10.02 0.65918,-3.6475 0.65918,-6.7676 0,-11.997 -4.79,-18.633 -4.75,-6.63 -15.34,-6.63 h -15.513 v 49.57 h 15.601 z M 223.7,223.145 h 26.147 q 13.315,0 20.654,9.4482 6.5478,8.5254 6.5478,21.841 0,10.283 -3.8672,18.589 -6.8115,14.678 -23.423,14.678 h -26.06 v -64.556 z"
       style="fill:#ffffff" />
    <path
       id="path4391"
       d="m 297.83,223.14 v 39.902 q 0,7.0312 2.6367,11.689 3.9111,7.0312 13.184,7.0312 11.118,0 15.117,-7.6025 2.1533,-4.1309 2.1533,-11.118 v -39.902 h 8.877 v 36.255 q 0,11.909 -3.208,18.325 -5.8887,11.689 -22.236,11.689 -16.348,0 -22.192,-11.689 -3.208,-6.416 -3.208,-18.325 v -36.255 h 8.877 z m 16.567,0 z"
       style="fill:#ffffff" />
    <path
       id="path4393"
       d="m 353.21,223.14 h 8.7451 v 56.865 h 32.695 v 7.6904 h -41.44 v -64.556 z"
       style="fill:#ffffff" />
    <path
       id="path4395"
       d="m 404.14,223.14 h 47.065 v 7.9102 h -38.54 v 19.6 h 35.64 v 7.4707 h -35.64 v 21.885 h 39.199 v 7.6904 h -47.725 v -64.556 z m 23.862,0 z"
       style="fill:#ffffff" />
    <path
       id="path4397"
       d="m 469.13,266.87 q 0.30762,5.4932 2.5928,8.9209 4.3506,6.416 15.337,6.416 4.9219,0 8.9648,-1.4062 7.8223,-2.7246 7.8223,-9.7559 0,-5.2734 -3.2959,-7.5146 -3.3398,-2.1973 -10.459,-3.8232 l -8.7451,-1.9775 q -8.5693,-1.9336 -12.129,-4.2627 -6.1523,-4.043 -6.1523,-12.085 0,-8.7012 6.0205,-14.282 6.0205,-5.5811 17.051,-5.5811 10.151,0 17.227,4.9219 7.1191,4.8779 7.1191,15.645 h -8.2178 q -0.65918,-5.1856 -2.8125,-7.9541 -3.999,-5.0537 -13.579,-5.0537 -7.7344,0 -11.118,3.252 -3.3838,3.252 -3.3838,7.5586 0,4.7461 3.9551,6.9434 2.5928,1.4062 11.733,3.5156 l 9.0527,2.0654 q 6.5479,1.4941 10.107,4.0869 6.1523,4.5264 6.1523,13.14 0,10.723 -7.8223,15.337 -7.7783,4.6143 -18.105,4.6143 -12.041,0 -18.853,-6.1523 -6.8115,-6.1084 -6.6797,-16.567 h 8.2178 z m 17.666,-45.483 z"
       style="fill:#ffffff" />
  </g>
  <rect
     id="rect4156"
     height="695.02002"
     width="695.02002"
     stroke="#000000"
     y="2.5"
     x="2.5"
     stroke-width="5"
     fill="none"
     style="stroke:#ffffff;stroke-opacity:1" />
</svg>
