<?xml version="1.0" encoding="UTF-8" standalone="no"?>
<svg
   viewBox="0 0 451 512"
   version="1.1"
   id="svg12"
   sodipodi:docname="html5.svg"
   width="451"
   height="512"
   inkscape:version="1.1.2 (b8e25be833, 2022-02-05)"
   xmlns:inkscape="http://www.inkscape.org/namespaces/inkscape"
   xmlns:sodipodi="http://sodipodi.sourceforge.net/DTD/sodipodi-0.dtd"
   xmlns="http://www.w3.org/2000/svg"
   xmlns:svg="http://www.w3.org/2000/svg">
  <defs
     id="defs16" />
  <sodipodi:namedview
     id="namedview14"
     pagecolor="#ffffff"
     bordercolor="#666666"
     borderopacity="1.0"
     inkscape:pageshadow="2"
     inkscape:pageopacity="0.0"
     inkscape:pagecheckerboard="0"
     showgrid="false"
     inkscape:zoom="1.7050781"
     inkscape:cx="226.08935"
     inkscape:cy="255.70676"
     inkscape:window-width="2560"
     inkscape:window-height="1369"
     inkscape:window-x="-8"
     inkscape:window-y="-8"
     inkscape:window-maximized="1"
     inkscape:current-layer="svg12" />
  <title
     id="title2">HTML5 Logo Badge</title>
  <path
     fill="#e34f26"
     d="M 41,460 0,0 h 451 l -41,460 -185,52"
     id="path4" />
  <path
     fill="#ef652a"
     d="M 226,472 375,431 410,37 H 226"
     id="path6" />
  <path
     fill="#ebebeb"
     d="m 226,208 h -75 l -5,-58 h 80 V 94 H 225 84 l 1,15 14,156 h 127 z m 0,147 h -1 l -63,-17 -4,-45 h -30 -26 l 7,89 116,32 h 1 z"
     id="path8" />
  <path
     fill="#ffffff"
     d="m 225,208 v 57 h 70 l -7,73 -63,17 v 59 l 116,-32 1,-10 13,-149 2,-15 h -16 z m 0,-114 v 35 21 0 h 137 v 0 0 l 1,-12 3,-29 1,-15 z"
     id="path10" />
</svg>
