<?xml version="1.0" encoding="UTF-8" standalone="no"?>
<!-- Generator: Adobe Illustrator 22.0.0, SVG Export Plug-In . SVG Version: 6.00 Build 0)  -->

<svg
   version="1.1"
   id="Layer_1"
   x="0px"
   y="0px"
   viewBox="0 0 445.1409 454.52463"
   xml:space="preserve"
   sodipodi:docname="pixijs.svg"
   inkscape:version="1.1.2 (b8e25be833, 2022-02-05)"
   width="445.1409"
   height="454.52463"
   xmlns:inkscape="http://www.inkscape.org/namespaces/inkscape"
   xmlns:sodipodi="http://sodipodi.sourceforge.net/DTD/sodipodi-0.dtd"
   xmlns="http://www.w3.org/2000/svg"
   xmlns:svg="http://www.w3.org/2000/svg"><defs
   id="defs19" /><sodipodi:namedview
   id="namedview17"
   pagecolor="#ffffff"
   bordercolor="#666666"
   borderopacity="1.0"
   inkscape:pageshadow="2"
   inkscape:pageopacity="0.0"
   inkscape:pagecheckerboard="0"
   showgrid="false"
   inkscape:zoom="1.7050781"
   inkscape:cx="222.57045"
   inkscape:cy="226.96907"
   inkscape:window-width="2560"
   inkscape:window-height="1369"
   inkscape:window-x="-8"
   inkscape:window-y="-8"
   inkscape:window-maximized="1"
   inkscape:current-layer="Layer_1" />
<style
   type="text/css"
   id="style2">
	.st0{fill:#272B34;}
	.st1{fill:#EA1E63;}
</style>
<title
   id="title4">PixiJS_logo</title>
<rect
   class="st0"
   width="445.1409"
   height="454.52463"
   id="rect6"
   x="0"
   y="0"
   style="stroke-width:0.878532" />
<path
   class="st1"
   d="m 143.67045,193.66231 c 8.2,0 13.5,-5.6 13.5,-12.5 -0.2,-7.3 -5.3,-12.7 -13.4,-12.7 -8.1,0 -13.4,5.4 -13.2,12.7 -0.1,6.9 5.2,12.5 13.1,12.5 z"
   id="path8" />
<path
   class="st1"
   d="m 243.27045,168.46231 c -8.1,0 -13.4,5.4 -13.2,12.7 -0.2,6.9 5.1,12.5 13,12.5 8.3,0 13.5,-5.6 13.5,-12.5 -0.1,-7.3 -5.2,-12.7 -13.3,-12.7 z"
   id="path10" />
<path
   class="st1"
   d="m 230.67045,203.56231 h -22.6 l -7.1,13 c -2.1,4 -4.1,8.1 -6.3,12.4 h -0.3 c -2.1,-3.8 -4.3,-7.9 -6.6,-12 l -7.9,-13.4 h -45.8 c -0.7,-8.8 -4.9,-16.9 -11.7,-22.4 -7.4,-5.9 -18.5,-8.9 -34.000004,-8.9 -15.3,0 -26.2,1 -34,2.3 v 109.7 h 24.9 v -39.8 c 2.8,0.4 5.7,0.5 8.6,0.5 14.900004,0 27.600004,-3.6 36.100004,-11.7 3.2,-3.1 5.7,-6.8 7.3,-10.9 v 61.9 h 47.4 l 7.6,-14.5 c 2,-4 4.1,-7.9 6.1,-12.2 h 0.5 c 2,4.1 4,8.2 6.3,12.2 l 8.1,14.5 h 48.5 v -80.7 z m -143.000004,22.1 c -2.8,0.1 -5.6,-0.1 -8.4,-0.7 v -32.8 c 3.4,-0.8 6.9,-1.1 10.4,-1 12.600004,0 19.600004,6.1 19.600004,16.3 0,11.5 -8.3,18.2 -21.600004,18.2 z m 68.800004,50.8 v -66.1 l 22.2,32.8 z m 52.3,-34.4 21.9,-31.7 v 66.2 z"
   id="path12" />
<path
   class="st1"
   d="m 361.97045,218.26231 c -14.4,-5.4 -20.6,-8.6 -20.6,-15.7 0,-5.8 5.3,-10.7 16.2,-10.7 8.1,0 16,1.8 23.3,5.3 l 5.6,-20.3 c -6.6,-3 -15.8,-5.6 -28.4,-5.6 -23.1,0 -38.1,11.2 -41.4,26.9 v -25.1 h -25.1 v 70 c 0,17.3 -6.6,22.1 -17.2,22.1 -4.4,0 -8.7,-0.7 -12.9,-2 l -2.8,20.3 c 5.9,1.7 12.1,2.6 18.3,2.6 24.4,0 39.6,-11.1 39.6,-42.7 v -32.3 c 2.8,12.6 13.9,21 29.9,26.5 13.4,4.8 18.6,8.7 18.6,15.7 0,7.3 -6.1,12 -17.7,12 -9.7,-0.2 -19.2,-2.5 -27.9,-6.9 l -5.1,20.8 c 6.3,3.5 18.8,6.8 31.5,6.8 30.5,0 44.9,-15.8 44.9,-34.5 0,-15.7 -9.2,-25.9 -28.8,-33.2 z"
   id="path14" />
</svg>
